# xmcd
#
# Track frame offsets: 
#        150
#        22246
#        38028
#        63342
#        78042
#        96879
#        114961
#        133203
#        148696
#        177728
#
# Disc length: 2626 seconds
#
# Revision: 0
# Processed by: cddbd v1.5.2PL0 Copyright (c) Steve Scherf et al.
# Submitted via: ExactAudioCopy v0.95b4
#
DISCID=890a400a
DTITLE=Rita Collidge - The Lady's Not For Sale
DYEAR=1972
DGENRE=Folk
TTITLE0=My Crew
TTITLE1=Fever
TTITLE2=Bird On A Wire
TTITLE3=I'll Be Your Baby Tonight
TTITLE4=A Women Left Lonely
TTITLE5=Whiskey Whiskey
TTITLE6=Everybody Loves A Winner
TTITLE7=Donut Man
TTITLE8=Inside Of Me
TTITLE9=The Lady's Not For Sale
EXTD=
EXTT0=
EXTT1=
EXTT2=
EXTT3=
EXTT4=
EXTT5=
EXTT6=
EXTT7=
EXTT8=
EXTT9=
PLAYORDER=
